# xmcd
#
# Track frame offsets: 
#        150
#        19948
#        32683
#        47180
#        68587
#        80557
#        98172
#        120385
#        133858
#        151437
#        164148
#        179286
#        195417
#        209158
#        222572
#        239572
#
# Disc length: 3423 seconds
#
# Revision: 0
# Processed by: cddbd v1.5.2PL0 Copyright (c) Steve Scherf et al.
# Submitted via: ExactAudioCopyFreeDBPlugin 1.0
#
DISCID=ee0d5d10
DTITLE=Trickbag - And Friends Vol. 1
DYEAR=2013
DGENRE=Blues
TTITLE0=Do What You Want
TTITLE1=Come Back
TTITLE2=Take My Love
TTITLE3=Get Up
TTITLE4=So Unhappy
TTITLE5=Cut You A-Loose
TTITLE6=That's All Right
TTITLE7=It's Your Life
TTITLE8=The Time Have Come
TTITLE9=Hot And Heavy
TTITLE10=Waitin' On The Moon
TTITLE11=I'm Not Lyin'
TTITLE12=My Love Is Strong
TTITLE13=Talk Back
TTITLE14=The Goat
TTITLE15=Scandanavian Stroll
EXTD=
EXTT0=
EXTT1=
EXTT2=
EXTT3=
EXTT4=
EXTT5=
EXTT6=
EXTT7=
EXTT8=
EXTT9=
EXTT10=
EXTT11=
EXTT12=
EXTT13=
EXTT14=
EXTT15=
PLAYORDER=
